# xmcd
# 
# Track frame offsets:
#     150
#     54842
#     109971
#     153047
#     169920
#     178932
#     195407
#     262939
#     290125
# 
# Disc length: 4391
# 
# Revision: 0
# Processed by: cddbd v1.5.2PL0 Copyright (c) Steve Scherf et al.
# Submitted via: BonkEnc v1.0.8
# 
DISCID=78112509
DTITLE=James Brown - Live - Roots Of Rock n' Roll
DYEAR=1997
DGENRE=Blues
TTITLE0=It's A Man's, Man's, Man's World
TTITLE1=(Call Me) Super Bad/Disco Rap
TTITLE2=Give It Up Or Turn It Loose/It's Too Funky In Here
TTITLE3=Funky Good Time
TTITLE4=Try Me
TTITLE5=I Got The Feelin'
TTITLE6=Get On The Foot/Prisoner Of Love/Get Up Offa That Thing
TTITLE7=Georgia On My Mind
TTITLE8=Cold Sweat/Papa's Got A Brand/I Feel Good
EXTD=
EXTT0=
EXTT1=
EXTT2=
EXTT3=
EXTT4=
EXTT5=
EXTT6=
EXTT7=
EXTT8=
PLAYORDER=
